<svg width="156" height="66" viewBox="0 0 156 66" fill="none" xmlns="http://www.w3.org/2000/svg">
<path d="M0 0H156V66H0V0Z" fill="#FAFAFC"/>
<path d="M1.735 49.6L14.095 20.2H15.88L3.52 49.6H1.735Z" fill="black"/>
<path d="M16.1352 46L25.8852 21.25H28.0002L37.7352 46H35.2752L32.2602 38.11H21.6252L18.5802 46H16.1352ZM22.3902 36.1H31.4802L26.9352 24.25L22.3902 36.1Z" fill="black"/>
<path d="M52.094 46.48C50.244 46.48 48.524 46.155 46.934 45.505C45.344 44.855 43.954 43.95 42.764 42.79C41.584 41.62 40.664 40.255 40.004 38.695C39.344 37.135 39.014 35.45 39.014 33.64C39.014 31.83 39.344 30.145 40.004 28.585C40.664 27.025 41.584 25.665 42.764 24.505C43.954 23.335 45.339 22.425 46.919 21.775C48.509 21.125 50.234 20.8 52.094 20.8C53.644 20.8 55.099 21.03 56.459 21.49C57.819 21.94 59.019 22.56 60.059 23.35L58.979 25.255C58.099 24.545 57.079 24 55.919 23.62C54.759 23.24 53.529 23.05 52.229 23.05C50.659 23.05 49.219 23.32 47.909 23.86C46.609 24.4 45.479 25.15 44.519 26.11C43.559 27.07 42.814 28.195 42.284 29.485C41.764 30.775 41.504 32.16 41.504 33.64C41.504 35.12 41.764 36.505 42.284 37.795C42.814 39.085 43.559 40.21 44.519 41.17C45.479 42.13 46.609 42.88 47.909 43.42C49.219 43.96 50.659 44.23 52.229 44.23C53.529 44.23 54.759 44.04 55.919 43.66C57.079 43.28 58.099 42.735 58.979 42.025L60.059 43.93C59.029 44.71 57.834 45.33 56.474 45.79C55.124 46.25 53.664 46.48 52.094 46.48Z" fill="black"/>
<path d="M74.1053 46.48C72.2553 46.48 70.5353 46.155 68.9453 45.505C67.3553 44.855 65.9653 43.95 64.7753 42.79C63.5953 41.62 62.6753 40.255 62.0153 38.695C61.3553 37.135 61.0253 35.45 61.0253 33.64C61.0253 31.83 61.3553 30.145 62.0153 28.585C62.6753 27.025 63.5953 25.665 64.7753 24.505C65.9653 23.335 67.3503 22.425 68.9303 21.775C70.5203 21.125 72.2453 20.8 74.1053 20.8C75.6553 20.8 77.1103 21.03 78.4703 21.49C79.8303 21.94 81.0303 22.56 82.0703 23.35L80.9903 25.255C80.1103 24.545 79.0903 24 77.9303 23.62C76.7703 23.24 75.5403 23.05 74.2403 23.05C72.6703 23.05 71.2303 23.32 69.9203 23.86C68.6203 24.4 67.4903 25.15 66.5303 26.11C65.5703 27.07 64.8253 28.195 64.2953 29.485C63.7753 30.775 63.5153 32.16 63.5153 33.64C63.5153 35.12 63.7753 36.505 64.2953 37.795C64.8253 39.085 65.5703 40.21 66.5303 41.17C67.4903 42.13 68.6203 42.88 69.9203 43.42C71.2303 43.96 72.6703 44.23 74.2403 44.23C75.5403 44.23 76.7703 44.04 77.9303 43.66C79.0903 43.28 80.1103 42.735 80.9903 42.025L82.0703 43.93C81.0403 44.71 79.8453 45.33 78.4853 45.79C77.1353 46.25 75.6753 46.48 74.1053 46.48Z" fill="black"/>
<path d="M85.3166 46V21.25H97.7816V23.26H87.5966V32.59H97.4216V34.6H87.5966V43.99H97.7816V46H85.3166Z" fill="black"/>
<path d="M102.348 46V21.25H104.628L117.918 42.115V21.25H120.198V46H117.918L104.628 25.165V46H102.348Z" fill="black"/>
<path d="M129.93 46V23.32H122.385V21.25H139.785V23.32H132.21V46H129.93Z" fill="black"/>
<path d="M140.082 49.6L152.442 20.2H154.227L141.867 49.6H140.082Z" fill="black"/>
<path d="M52.907 62.224C52.1557 62.224 51.4883 62.0583 50.905 61.727C50.3217 61.391 49.8643 60.9407 49.533 60.376C49.2017 59.8067 49.036 59.1673 49.036 58.458C49.036 57.9167 49.1317 57.4127 49.323 56.946C49.519 56.4793 49.7873 56.071 50.128 55.721C50.4733 55.371 50.87 55.098 51.318 54.902C51.7707 54.706 52.2513 54.608 52.76 54.608C53.4367 54.608 54.048 54.7643 54.594 55.077C55.1447 55.385 55.5857 55.812 55.917 56.358C56.253 56.904 56.4373 57.527 56.47 58.227C56.47 58.2737 56.47 58.3157 56.47 58.353C56.47 58.3857 56.4677 58.4253 56.463 58.472H49.764C49.764 59.074 49.8993 59.6107 50.17 60.082C50.4407 60.5533 50.814 60.9243 51.29 61.195C51.7707 61.461 52.3167 61.594 52.928 61.594C53.5113 61.594 54.0363 61.4703 54.503 61.223C54.9743 60.9757 55.3547 60.6257 55.644 60.173L56.204 60.488C55.8633 61.0387 55.4037 61.4657 54.825 61.769C54.251 62.0723 53.6117 62.224 52.907 62.224ZM49.799 57.884H55.728C55.6673 57.3753 55.4993 56.9227 55.224 56.526C54.9487 56.1293 54.5987 55.8167 54.174 55.588C53.7493 55.3547 53.2827 55.238 52.774 55.238C52.256 55.238 51.7823 55.3523 51.353 55.581C50.9283 55.8097 50.5783 56.1247 50.303 56.526C50.0277 56.9227 49.8597 57.3753 49.799 57.884Z" fill="black"/>
<path d="M59.7662 62.224C59.1782 62.224 58.6602 62.07 58.2122 61.762C57.7689 61.4493 57.4306 61.0083 57.1972 60.439L57.6452 60.068C57.8506 60.558 58.1376 60.9407 58.5062 61.216C58.8796 61.4913 59.2972 61.629 59.7592 61.629C60.0812 61.629 60.3799 61.5613 60.6552 61.426C60.9306 61.286 61.1499 61.09 61.3132 60.838C61.4766 60.586 61.5582 60.285 61.5582 59.935C61.5582 59.6223 61.4859 59.3797 61.3412 59.207C61.1966 59.0297 60.9842 58.878 60.7042 58.752C60.4242 58.626 60.0859 58.486 59.6892 58.332C59.3812 58.2107 59.0802 58.0753 58.7862 57.926C58.4969 57.772 58.2566 57.5783 58.0652 57.345C57.8786 57.107 57.7852 56.806 57.7852 56.442C57.7852 56.092 57.8762 55.7793 58.0582 55.504C58.2449 55.2287 58.4992 55.0117 58.8212 54.853C59.1479 54.6897 59.5142 54.608 59.9202 54.608C60.3309 54.608 60.7066 54.7037 61.0472 54.895C61.3926 55.0817 61.6866 55.3477 61.9292 55.693L61.5232 56.092C61.1406 55.4853 60.6062 55.182 59.9202 55.182C59.4956 55.182 59.1502 55.2963 58.8842 55.525C58.6182 55.7537 58.4852 56.05 58.4852 56.414C58.4852 56.6753 58.5599 56.89 58.7092 57.058C58.8632 57.2213 59.0662 57.3613 59.3182 57.478C59.5702 57.5947 59.8479 57.7113 60.1512 57.828C60.5852 57.9913 60.9609 58.1523 61.2782 58.311C61.6002 58.4697 61.8476 58.6727 62.0202 58.92C62.1976 59.1627 62.2862 59.494 62.2862 59.914C62.2862 60.3807 62.1766 60.789 61.9572 61.139C61.7426 61.4843 61.4439 61.7527 61.0612 61.944C60.6832 62.1307 60.2516 62.224 59.7662 62.224Z" fill="black"/>
<path d="M65.3371 62.224C64.8425 62.224 64.4598 62.056 64.1891 61.72C63.9231 61.3793 63.7901 60.901 63.7901 60.285V55.392H63.1111V54.832H63.7901V52.158H64.5321V54.832H66.3661V55.392H64.5321V60.25C64.5321 60.6793 64.6138 61.0083 64.7771 61.237C64.9405 61.461 65.1738 61.573 65.4771 61.573C65.7711 61.573 66.0208 61.4937 66.2261 61.335L66.4151 61.93C66.2798 62.0187 66.1165 62.0887 65.9251 62.14C65.7338 62.196 65.5378 62.224 65.3371 62.224Z" fill="black"/>
<path d="M68.8217 62.224C68.7237 62.224 68.6327 62.1983 68.5487 62.147C68.4647 62.1003 68.3971 62.035 68.3457 61.951C68.2991 61.867 68.2757 61.7737 68.2757 61.671C68.2757 61.573 68.2991 61.4843 68.3457 61.405C68.3971 61.321 68.4647 61.2533 68.5487 61.202C68.6327 61.1507 68.7237 61.125 68.8217 61.125C68.9244 61.125 69.0154 61.1507 69.0947 61.202C69.1787 61.2533 69.2441 61.321 69.2907 61.405C69.3421 61.4843 69.3677 61.573 69.3677 61.671C69.3677 61.7737 69.3421 61.867 69.2907 61.951C69.2441 62.035 69.1787 62.1003 69.0947 62.147C69.0154 62.1983 68.9244 62.224 68.8217 62.224Z" fill="black"/>
<path d="M74.0284 62V61.671C75.1437 60.789 76.1004 60.0143 76.8984 59.347C77.6964 58.675 78.3614 58.0823 78.8934 57.569C79.4254 57.0557 79.8454 56.596 80.1534 56.19C80.4661 55.784 80.6877 55.4083 80.8184 55.063C80.9491 54.713 81.0144 54.3653 81.0144 54.02C81.0144 53.4553 80.8791 52.9443 80.6084 52.487C80.3377 52.0297 79.9761 51.6657 79.5234 51.395C79.0707 51.1243 78.5667 50.989 78.0114 50.989C77.4607 50.989 76.9567 51.1243 76.4994 51.395C76.0467 51.6657 75.6804 52.0343 75.4004 52.501C75.1204 52.963 74.9664 53.4857 74.9384 54.069L74.2104 53.894C74.2384 53.3807 74.3551 52.9023 74.5604 52.459C74.7657 52.0157 75.0411 51.6283 75.3864 51.297C75.7317 50.9657 76.1307 50.7067 76.5834 50.52C77.0361 50.3333 77.5214 50.24 78.0394 50.24C78.7441 50.24 79.3834 50.4057 79.9574 50.737C80.5314 51.0683 80.9887 51.5187 81.3294 52.088C81.6747 52.6573 81.8474 53.3037 81.8474 54.027C81.8474 54.4003 81.7891 54.7667 81.6724 55.126C81.5604 55.4853 81.3667 55.8657 81.0914 56.267C80.8161 56.6637 80.4451 57.1 79.9784 57.576C79.5117 58.052 78.9261 58.591 78.2214 59.193C77.5214 59.7903 76.6814 60.4763 75.7014 61.251H82.0574V62H74.0284Z" fill="black"/>
<path d="M88.2323 62.224C87.2943 62.224 86.4729 61.9743 85.7683 61.475C85.0636 60.9757 84.5153 60.2757 84.1233 59.375C83.7313 58.4743 83.5353 57.4267 83.5353 56.232C83.5353 55.0327 83.7313 53.985 84.1233 53.089C84.5153 52.1883 85.0636 51.4883 85.7683 50.989C86.4729 50.4897 87.2943 50.24 88.2323 50.24C89.1749 50.24 89.9986 50.4897 90.7033 50.989C91.4079 51.4883 91.9563 52.1883 92.3483 53.089C92.7403 53.985 92.9363 55.0327 92.9363 56.232C92.9363 57.4267 92.7403 58.4743 92.3483 59.375C91.9563 60.2757 91.4079 60.9757 90.7033 61.475C89.9986 61.9743 89.1749 62.224 88.2323 62.224ZM88.2323 61.524C89.0116 61.524 89.6929 61.3047 90.2763 60.866C90.8596 60.4273 91.3123 59.8113 91.6343 59.018C91.9609 58.22 92.1243 57.2913 92.1243 56.232C92.1243 55.168 91.9609 54.2393 91.6343 53.446C91.3123 52.6527 90.8596 52.0367 90.2763 51.598C89.6929 51.1593 89.0116 50.94 88.2323 50.94C87.4576 50.94 86.7786 51.1593 86.1953 51.598C85.6119 52.0367 85.157 52.6527 84.8303 53.446C84.5083 54.2393 84.3473 55.168 84.3473 56.232C84.3473 57.2913 84.5083 58.22 84.8303 59.018C85.157 59.8113 85.6119 60.4273 86.1953 60.866C86.7786 61.3047 87.4576 61.524 88.2323 61.524Z" fill="black"/>
<path d="M95.2872 62V51.206H94.3492V50.45H96.0502V62H95.2872Z" fill="black"/>
<path d="M97.94 62V61.671C99.0553 60.789 100.012 60.0143 100.81 59.347C101.608 58.675 102.273 58.0823 102.805 57.569C103.337 57.0557 103.757 56.596 104.065 56.19C104.378 55.784 104.599 55.4083 104.73 55.063C104.861 54.713 104.926 54.3653 104.926 54.02C104.926 53.4553 104.791 52.9443 104.52 52.487C104.249 52.0297 103.888 51.6657 103.435 51.395C102.982 51.1243 102.478 50.989 101.923 50.989C101.372 50.989 100.868 51.1243 100.411 51.395C99.9583 51.6657 99.592 52.0343 99.312 52.501C99.032 52.963 98.878 53.4857 98.85 54.069L98.122 53.894C98.15 53.3807 98.2666 52.9023 98.472 52.459C98.6773 52.0157 98.9526 51.6283 99.298 51.297C99.6433 50.9657 100.042 50.7067 100.495 50.52C100.948 50.3333 101.433 50.24 101.951 50.24C102.656 50.24 103.295 50.4057 103.869 50.737C104.443 51.0683 104.9 51.5187 105.241 52.088C105.586 52.6573 105.759 53.3037 105.759 54.027C105.759 54.4003 105.701 54.7667 105.584 55.126C105.472 55.4853 105.278 55.8657 105.003 56.267C104.728 56.6637 104.357 57.1 103.89 57.576C103.423 58.052 102.838 58.591 102.133 59.193C101.433 59.7903 100.593 60.4763 99.613 61.251H105.969V62H97.94Z" fill="black"/>
</svg>
